<?xml version="1.0" standalone="no"?><!-- Generator: Adobe Fireworks CS6, Export SVG Extension by Aaron Beall (http://fireworks.abeall.com) . Version: 0.6.0  --><!DOCTYPE svg PUBLIC "-//W3C//DTD SVG 1.1//EN" "http://www.w3.org/Graphics/SVG/1.1/DTD/svg11.dtd"><svg id="" viewBox="0 0 474 512" style="background-color:#ffffff00" version="1.1"	xmlns="http://www.w3.org/2000/svg" xmlns:xlink="http://www.w3.org/1999/xlink" xml:space="preserve"	x="0px" y="0px" width="474px" height="512px">	<g id="Layer%201">		<path d="M 238.7336 292.2961 L 259.3842 506.122 C 259.3842 509.3681 256.777 512 253.56 512 L 226.3784 512 C 223.1614 512 220.5537 509.3681 220.5537 506.122 L 238.7336 292.2961 Z" fill="#27cebc"/>		<path d="M 238.7336 219.7038 L 259.3842 5.878 C 259.3842 2.6319 256.777 0 253.56 0 L 226.3784 0 C 223.1614 0 220.5537 2.6319 220.5537 5.878 L 238.7336 219.7038 Z" fill="#27cebc"/>		<path d="M 200.1834 233.8369 L 24.9829 112.1739 C 22.1699 110.6039 18.6131 111.6346 17.0398 114.4762 L 3.7439 138.4871 C 2.17 141.3288 3.1752 144.9052 5.9888 146.4756 L 200.1834 233.8369 Z" fill="#7de2d7"/>		<path d="M 274.8166 278.466 L 450.0171 400.1291 C 452.8307 401.699 456.3868 400.6683 457.9601 397.8268 L 471.2561 373.8158 C 472.83 370.9742 471.8248 367.3977 469.0112 365.8273 L 274.8166 278.466 Z" fill="#7de2d7"/>		<path d="M 199.5922 278.1091 L 7.4833 370.4559 C 4.7276 372.1305 3.8303 375.7527 5.4796 378.5471 L 19.4169 402.1579 C 21.0661 404.952 24.6377 405.8602 27.3935 404.1853 L 199.5922 278.1091 Z" fill="#27cebc"/>		<path d="M 275.2537 235.1756 L 467.3625 142.8288 C 470.1183 141.1546 471.015 137.5323 469.3658 134.7378 L 455.429 111.1271 C 453.7792 108.3329 450.2082 107.4249 447.4524 109.0992 L 275.2537 235.1756 Z" fill="#27cebc"/>		<path d="M 204.0027 255.3958 L 49.4109 269.812 C 46.1943 269.812 43.5867 267.1804 43.5867 263.9337 L 43.5867 249.3509 C 43.5867 246.1046 46.1943 243.4731 49.4109 243.4731 L 204.0027 255.3958 Z" fill="#7de2d7"/>		<path d="M 270.2062 254.6771 L 424.7975 240.2608 C 428.0146 240.2608 430.6228 242.8927 430.6228 246.139 L 430.6228 260.7218 C 430.6228 263.9682 428.0146 266.5998 424.7975 266.5998 L 270.2062 254.6771 Z" fill="#7de2d7"/>		<path d="M 220.8631 284.1708 L 155.989 426.6039 C 154.381 429.4178 150.8094 430.3832 148.0118 428.7599 L 135.4469 421.4685 C 132.6493 419.8454 131.686 416.2484 133.2939 413.4345 L 220.8631 284.1708 Z" fill="#27cebc"/>		<path d="M 253.3458 225.9019 L 318.22 83.4688 C 319.8279 80.6549 323.3995 79.69 326.1971 81.3128 L 338.7626 88.6043 C 341.5596 90.2275 342.5236 93.8244 340.915 96.6382 L 253.3458 225.9019 Z" fill="#27cebc"/>		<path d="M 219.7616 226.5907 L 128.0665 100.1135 C 126.4101 97.3316 127.2787 93.7608 130.0059 92.1376 L 142.2576 84.8462 C 144.9847 83.2229 148.5381 84.1623 150.194 86.9439 L 219.7616 226.5907 Z" fill="#208a7b"/>		<path d="M 254.4474 283.4819 L 346.1425 409.9591 C 347.7989 412.7412 346.9308 416.3122 344.2031 417.9351 L 331.9519 425.2264 C 329.2243 426.8498 325.6708 425.9106 324.015 423.1288 L 254.4474 283.4819 Z" fill="#208a7b"/>	</g></svg>