<?xml version="1.0" standalone="no"?><!-- Generator: Adobe Fireworks CS6, Export SVG Extension by Aaron Beall (http://fireworks.abeall.com) . Version: 0.6.0  --><!DOCTYPE svg PUBLIC "-//W3C//DTD SVG 1.1//EN" "http://www.w3.org/Graphics/SVG/1.1/DTD/svg11.dtd"><svg id="" viewBox="0 0 103 83" style="background-color:#ffffff00" version="1.1"	xmlns="http://www.w3.org/2000/svg" xmlns:xlink="http://www.w3.org/1999/xlink" xml:space="preserve"	x="0px" y="0px" width="103px" height="83px">	<g id="Layer%201">		<path opacity="0.1608" d="M 35.9135 70.1518 L 60.8517 82 L 102 52.6912 L 77.6851 42.09 L 35.9135 70.1518 Z" stroke="#000000" stroke-width="1" fill="#000000"/>		<path d="M 46.5122 25.8766 L 1 52.6912 L 39.1065 70.5927 L 79.5554 41.4665 L 46.5122 25.8766 Z" stroke="#59cfbf" stroke-width="1" fill="#4d344e"/>		<path d="M 46.8241 22.1353 L 1.3117 48.9496 L 38.0957 66.4101 L 79.8671 37.7248 L 46.8241 22.1353 Z" stroke="#59cfbf" stroke-width="1" fill="#4d344e"/>		<path d="M 46.5122 17.7701 L 1 44.5844 L 37.7838 62.045 L 79.5554 33.3597 L 46.5122 17.7701 Z" stroke="#59cfbf" stroke-width="1" fill="#4d344e"/>		<path d="M 46.8241 13.4047 L 1.3117 40.2193 L 38.0957 57.6798 L 79.8671 28.9945 L 46.8241 13.4047 Z" stroke="#59cfbf" stroke-width="1" fill="#4d344e"/>		<path d="M 47.3021 9.4185 L 1.5095 35.7514 L 38.1071 53.5989 L 80.179 25.3562 L 47.3021 9.4185 Z" stroke="#59cfbf" stroke-width="1" fill="#4d344e"/>		<path d="M 47.6138 5.3651 L 1.8212 31.6979 L 38.4188 49.5457 L 80.4907 21.3028 L 47.6138 5.3651 Z" stroke="#59cfbf" stroke-width="1" fill="#4d344e"/>		<path d="M 47.6138 1 C -5.1184 30.2259 10.423 21.7755 1.3804 26.8919 L 38.4188 45.1806 L 80.4907 16.9377 L 47.6138 1 Z" stroke="#59cfbf" stroke-width="1" fill="#4d344e"/>	</g></svg>