<?xml version="1.0" encoding="UTF-8" standalone="no"?>
<svg width="82px" height="72px" viewBox="0 0 82 72" version="1.1" xmlns="http://www.w3.org/2000/svg" xmlns:xlink="http://www.w3.org/1999/xlink" xmlns:sketch="http://www.bohemiancoding.com/sketch/ns">
    <!-- Generator: Sketch 3.0.4 (8053) - http://www.bohemiancoding.com/sketch -->
    <title>Untitled 2</title>
    <desc>Created with Sketch.</desc>
    <defs></defs>
    <g id="Page-1" stroke="none" stroke-width="1" fill="none" fill-rule="evenodd" sketch:type="MSPage">
        <g id="cards" sketch:type="MSLayerGroup" transform="translate(1.000000, 1.000000)" stroke="#59CFBF" fill="#4D344E">
            <path d="M45.5122,24.8766 L0,51.6912 L38.1065,69.5927 L78.5554,40.4665 L45.5122,24.8766 L45.5122,24.8766 Z" id="Shape" sketch:type="MSShapeGroup"></path>
            <path d="M45.8241,21.1353 L0.3117,47.9496 L37.0957,65.4101 L78.8671,36.7248 L45.8241,21.1353 L45.8241,21.1353 Z" id="Shape" sketch:type="MSShapeGroup"></path>
            <path d="M45.5122,16.7701 L0,43.5844 L36.7838,61.045 L78.5554,32.3597 L45.5122,16.7701 L45.5122,16.7701 Z" id="Shape" sketch:type="MSShapeGroup"></path>
            <path d="M45.8241,12.4047 L0.3117,39.2193 L37.0957,56.6798 L78.8671,27.9945 L45.8241,12.4047 L45.8241,12.4047 Z" id="Shape" sketch:type="MSShapeGroup"></path>
            <path d="M46.3021,8.4185 L0.5095,34.7514 L37.1071,52.5989 L79.179,24.3562 L46.3021,8.4185 L46.3021,8.4185 Z" id="Shape" sketch:type="MSShapeGroup"></path>
            <path d="M46.6138,4.3651 L0.8212,30.6979 L37.4188,48.5457 L79.4907,20.3028 L46.6138,4.3651 L46.6138,4.3651 Z" id="Shape" sketch:type="MSShapeGroup"></path>
            <path d="M46.6138,0 C-6.1184,29.2259 9.423,20.7755 0.3804,25.8919 L37.4188,44.1806 L79.4907,15.9377 L46.6138,0 L46.6138,0 Z" id="Shape" sketch:type="MSShapeGroup"></path>
        </g>
    </g>
</svg>