<?xml version="1.0" standalone="no"?><!-- Generator: Adobe Fireworks CS6, Export SVG Extension by Aaron Beall (http://fireworks.abeall.com) . Version: 0.6.0  --><!DOCTYPE svg PUBLIC "-//W3C//DTD SVG 1.1//EN" "http://www.w3.org/Graphics/SVG/1.1/DTD/svg11.dtd"><svg id="" viewBox="0 0 361 102" style="background-color:#ffffff00" version="1.1"	xmlns="http://www.w3.org/2000/svg" xmlns:xlink="http://www.w3.org/1999/xlink" xml:space="preserve"	x="0px" y="0px" width="361px" height="102px">	<g id="Layer_1_1">		<g>			<path id="Ellipse" d="M 7 51 C 7 26.6993 26.7091 7 51.0224 7 C 75.3356 7 95.0448 26.6993 95.0448 51 C 95.0448 75.3007 75.3356 95 51.0224 95 C 26.7091 95 7 75.3007 7 51 Z" stroke="#000000" stroke-width="6" fill="none"/>			<path id="Ellipse2" d="M 136.4776 51 C 136.4776 26.6993 156.1868 7 180.5 7 C 204.8131 7 224.5224 26.6993 224.5224 51 C 224.5224 75.3007 204.8131 95 180.5 95 C 156.1868 95 136.4776 75.3007 136.4776 51 Z" stroke="#000000" stroke-width="6" fill="none"/>			<path id="Ellipse3" d="M 265.9552 51 C 265.9552 26.6993 285.6645 7 309.9776 7 C 334.2907 7 354 26.6993 354 51 C 354 75.3007 334.2907 95 309.9776 95 C 285.6645 95 265.9552 75.3007 265.9552 51 Z" stroke="#000000" stroke-width="6" fill="none"/>		</g>	</g></svg>