<?xml version="1.0" encoding="utf-8"?>
<!-- Generator: Adobe Illustrator 16.0.0, SVG Export Plug-In . SVG Version: 6.00 Build 0)  -->
<!DOCTYPE svg PUBLIC "-//W3C//DTD SVG 1.1//EN" "http://www.w3.org/Graphics/SVG/1.1/DTD/svg11.dtd">
<svg version="1.1" id="Layer_1" xmlns="http://www.w3.org/2000/svg" xmlns:xlink="http://www.w3.org/1999/xlink" x="0px" y="0px"
	 width="366px" height="321px" viewBox="0 0 366 321" enable-background="new 0 0 366 321" xml:space="preserve">
<path fill="none" d="z"/>
<path fill="#37c1b2" d="M364,74L214,1L4,118v3c6,3,12,6,17,9c-5,5-15,6-15,12c4,3,8,5,12,7c-2,2-13,7-13,10c0,3,11,7,13,10
	c-2,0-14,7-14,10c0,4,10,6,13,9c-6,4-15,6-15,12c5,3,11,6,15,9c-2,0-13,5-13,9c0,3,7,6,11,8c-5,3-12,4-13,10l173,82l184-133
	c-1-6-6-5-10-7c5-4,12-7,12-11c-5-3-10-5-14-8c4-3,12-8,12-11c0-2-8-5-12-8c3-3,13-8,14-12c-3-2-7-4-10-6c4-3,11-7,11-10
	c0-2-7-5-11-7c4-4,11-7,13-11c-5-4-10-6-14-8C353,82,363,78,364,74z M14,120L214,7l140,68L172,197L14,120z M350,185L175,311L12,235
	c3-2,7-4,9-5l149,70l174-118C346,183,348,184,350,185z M352,169L171,293L13,218c3-2,7-4,11-6l145,68l172-116
	C345,165,349,167,352,169z M351,149L169,273L12,199c3-2,8-5,12-7l147,69l170-116C345,147,348,148,351,149z M170,253L13,179
	c4-2,9-5,12-7l146,71l175-116c1,0,3,1,5,2L170,253z M353,113L171,235L14,159c3-2,7-4,10-6l148,71l173-114C348,111,351,112,353,113z
	 M355,95L172,217L16,141c4-3,8-5,11-7l145,71L345,90C348,92,352,94,355,95z"/>
<path fill="none" d="z"/>
</svg>
