<?xml version="1.0" encoding="utf-8"?>
<!-- Generator: Adobe Illustrator 16.0.0, SVG Export Plug-In . SVG Version: 6.00 Build 0)  -->
<!DOCTYPE svg PUBLIC "-//W3C//DTD SVG 1.1//EN" "http://www.w3.org/Graphics/SVG/1.1/DTD/svg11.dtd">
<svg version="1.1" id="Layer_1" xmlns="http://www.w3.org/2000/svg" xmlns:xlink="http://www.w3.org/1999/xlink" x="0px" y="0px"
	 width="240px" height="309px" viewBox="0 0 240 309" enable-background="new 0 0 240 309" xml:space="preserve">
<path fill="none" d="z"/>
<path d="M188.235,18.404C146.824,18.404,108.235,0,61.176,0C45.176,0,11.294,1.938,0,12.592V309h14.118V171.452
	c4.706-4.845,35.765-7.749,46.118-7.749c27.294,0,49.882,9.686,79.059,15.497c16,3.876,33.882,5.812,49.882,6.781L240,181.139
	V12.592C222.117,14.53,206.117,18.404,188.235,18.404z M224.941,166.607c-11.295,0.97-33.883,2.906-35.766,2.906
	c-53.646,0-83.764-21.31-129.882-21.31c-19.765,0-18.823-0.968-44.235,5.812V22.28c5.646-1.938,10.353-3.875,16.941-4.844
	c8.471-1.938,27.294-1.938,30.118-1.938c40.471,0,87.529,19.372,126.118,19.372c2.823,0,20.706-0.968,36.706-2.905V166.607z"/>
<path fill="none" d="z"/>
</svg>
