<?xml version="1.0" standalone="no"?><!-- Generator: Adobe Fireworks CS6, Export SVG Extension by Aaron Beall (http://fireworks.abeall.com) . Version: 0.6.0  --><!DOCTYPE svg PUBLIC "-//W3C//DTD SVG 1.1//EN" "http://www.w3.org/Graphics/SVG/1.1/DTD/svg11.dtd"><svg id="" viewBox="0 0 189 68" style="background-color:#ffffff00" version="1.1"	xmlns="http://www.w3.org/2000/svg" xmlns:xlink="http://www.w3.org/1999/xlink" xml:space="preserve"	x="0px" y="0px" width="189px" height="68px">	<g id="Layer%201">		<g>			<path d="M 164.3573 67 L 159.1904 67 L 164.3573 67 Z" fill="#02b294"/>			<path d="M 157.9664 38.2502 L 160.7169 66.2332 C 160.7169 66.6558 160.3654 67 159.9412 67 L 156.325 67 C 155.8951 67 155.5493 66.6558 155.5493 66.2332 L 157.9664 38.2502 Z" fill="#27cebc"/>			<path d="M 157.9664 28.7496 L 160.7169 0.7667 C 160.7169 0.344 160.3654 0 159.9412 0 L 156.325 0 C 155.8951 0 155.5493 0.344 155.5493 0.7667 L 157.9664 28.7496 Z" fill="#27cebc"/>			<path d="M 152.8358 30.6029 L 129.5317 14.6794 C 129.1561 14.4746 128.6837 14.6074 128.4718 14.9813 L 126.7028 18.1201 C 126.4966 18.4944 126.6301 18.9651 127.006 19.1702 L 152.8358 30.6029 Z" fill="#7de2d7"/>			<path d="M 162.7706 36.4394 L 186.074 52.3625 C 186.45 52.5676 186.9224 52.4288 187.1343 52.0606 L 188.903 48.9159 C 189.1095 48.5481 188.976 48.077 188.6004 47.8716 L 162.7706 36.4394 Z" fill="#7de2d7"/>			<path d="M 162.825 30.7778 L 188.3824 18.6875 C 188.7519 18.4704 188.8666 17.9993 188.649 17.6313 L 186.795 14.5407 C 186.577 14.1788 186.0984 14.0578 185.7347 14.2752 L 162.825 30.7778 Z" fill="#27cebc"/>			<path d="M 162.1525 33.3248 L 182.7183 31.4416 C 183.1482 31.4416 183.494 31.7861 183.494 32.2081 L 183.494 34.1156 C 183.494 34.544 183.1482 34.8882 182.7183 34.8882 L 162.1525 33.3248 Z" fill="#27cebc"/>			<path d="M 159.911 29.5586 L 168.5434 10.9252 C 168.7556 10.5571 169.2277 10.4302 169.6037 10.6415 L 171.2752 11.5953 C 171.6451 11.8064 171.7721 12.2771 171.5598 12.6455 L 159.911 29.5586 Z" fill="#27cebc"/>			<path d="M 155.4407 29.6489 L 143.2464 13.0985 C 143.0223 12.736 143.1374 12.2712 143.5008 12.0601 L 145.1303 11.1004 C 145.494 10.889 145.9661 11.0158 146.1902 11.3779 L 155.4407 29.6489 Z" fill="#208a7b"/>			<path d="M 160.0567 37.0973 L 172.2567 53.6481 C 172.4751 54.0102 172.3596 54.4809 171.9966 54.6924 L 170.3668 55.646 C 170.0034 55.8575 169.5306 55.7367 169.3126 55.3681 L 160.0567 37.0973 Z" fill="#208a7b"/>			<path d="M 25.7209 35.5826 C 26.5326 35.5826 27.2718 34.7796 27.2718 33.7898 C 27.2718 32.8358 26.5326 32.0331 25.7209 32.0331 L 24.4793 32.0331 C 22.1954 32.0331 20.372 33.6327 19.5542 35.2384 L 19.5542 33.5603 C 19.5542 32.5583 18.7062 32.0274 17.6945 32.0274 C 16.5315 32.0274 15.7198 32.5583 15.7198 33.3187 L 15.7198 48.7288 C 15.7198 49.3744 16.5315 50.0627 17.6945 50.0627 C 18.8575 50.0627 19.7904 49.3744 19.7904 48.7288 L 19.7904 40.9303 C 19.7904 37.6766 22.1164 35.5826 24.4793 35.5826 L 25.7209 35.5826 Z" fill="#ffffff"/>			<path d="M 33.1172 39.8742 L 33.1172 38.6367 C 33.1172 36.5122 34.9653 35.009 37.1335 35.009 C 39.381 35.009 41.1137 36.6689 41.1137 38.7152 C 41.1137 39.6448 40.7985 39.8742 39.6537 39.8742 L 33.1172 39.8742 ZM 37.1762 32.0632 C 32.651 32.0632 29.0468 35.3528 29.0468 39.4092 L 29.0468 42.9282 C 29.0468 47.612 32.7661 50.7023 38.1212 50.7023 C 42.0103 50.7023 44.3485 48.9281 44.3485 47.7691 C 44.3485 47.0686 43.7729 45.9522 42.8763 45.9522 C 41.9072 45.8375 41.0349 47.3041 38.2363 47.3041 C 35.2011 47.3041 33.1172 45.6869 33.1172 43.1032 L 33.1172 42.2159 L 41.4046 42.2159 C 43.0218 42.2159 44.6756 42.1073 44.6756 39.0654 C 44.6756 34.8581 41.3679 32.0632 37.1762 32.0632 Z" fill="#ffffff"/>			<path d="M 55.2823 50.6485 C 58.8506 50.6485 61.4069 49.0969 61.4069 47.7812 C 61.4069 46.9843 60.7465 45.892 59.6625 45.892 C 58.7718 45.8557 58.1479 47.1112 55.5913 47.1112 C 52.6049 47.1112 51.2906 45.584 51.2906 43.067 L 51.2906 39.6265 C 51.2906 37.1095 52.6476 35.5826 55.555 35.5826 C 58.0327 35.5762 58.7296 36.7653 59.547 36.7653 C 60.5162 36.7653 61.1768 35.5762 61.1768 34.8097 C 61.1768 33.4635 58.7718 32.0087 55.2465 32.0087 C 49.6973 32.0087 47.2198 35.3471 47.2198 39.6387 L 47.2198 43.0914 C 47.2198 47.4371 49.6973 50.6485 55.2823 50.6485 Z" fill="#ffffff"/>			<path d="M 74.1826 35.5826 C 74.9942 35.5826 75.7332 34.7796 75.7332 33.7898 C 75.7332 32.8358 74.9942 32.0331 74.1826 32.0331 L 72.9408 32.0331 C 70.6572 32.0331 68.8334 33.6327 68.0158 35.2384 L 68.0158 33.5603 C 68.0158 32.5583 67.1678 32.0274 66.1561 32.0274 C 64.9933 32.0274 64.1814 32.5583 64.1814 33.3187 L 64.1814 48.7288 C 64.1814 49.3744 64.9933 50.0627 66.1561 50.0627 C 67.3191 50.0627 68.252 49.3744 68.252 48.7288 L 68.252 40.9303 C 68.252 37.6766 70.5782 35.5826 72.9408 35.5826 L 74.1826 35.5826 Z" fill="#ffffff"/>			<path d="M 87.8064 43.5621 C 87.8064 45.5897 85.5469 47.6844 83.566 47.6844 C 82.0999 47.6844 80.9915 46.8818 80.9915 45.0649 C 80.9915 42.4873 83.8022 42.1675 86.813 42.1675 L 87.8064 42.1675 L 87.8064 43.5621 ZM 83.9597 32.1779 C 81.2702 32.1779 78.0472 33.1678 78.0472 34.4476 C 78.0472 35.2983 78.5502 36.3247 79.5194 36.3247 C 80.2946 36.4699 80.9915 35.3894 83.8811 35.3894 C 86.7767 35.3894 87.8064 37.4411 87.8064 39.2762 L 87.8064 39.9222 L 86.0616 39.9222 C 80.5673 39.9222 76.8842 41.0813 76.8842 45.5897 C 76.8842 49.0847 79.2104 50.6299 82.0637 50.6299 C 84.7533 50.6299 86.6551 49.2661 88.0367 47.7572 L 88.0367 49.0489 C 88.0367 49.459 88.8543 50.0627 89.8962 50.0627 C 91.0229 50.0627 91.877 49.459 91.877 48.7409 L 91.877 39.2099 C 91.877 35.5102 89.7448 32.1779 83.9597 32.1779 Z" fill="#ffffff"/>			<path d="M 102.3268 50.6485 C 105.8884 50.6485 108.4508 49.0969 108.4508 47.7812 C 108.4508 46.9843 107.7906 45.892 106.7062 45.892 C 105.8099 45.8557 105.1918 47.1112 102.6356 47.1112 C 99.6493 47.1112 98.3282 45.584 98.3282 43.067 L 98.3282 39.6265 C 98.3282 37.1095 99.6853 35.5826 102.5931 35.5826 C 105.0767 35.5762 105.7733 36.7653 106.5853 36.7653 C 107.5542 36.7653 108.2151 35.5762 108.2151 34.8097 C 108.2151 33.4635 105.8099 32.0087 102.2841 32.0087 C 96.7415 32.0087 94.2578 35.3471 94.2578 39.6387 L 94.2578 43.0914 C 94.2578 47.4371 96.7415 50.6485 102.3268 50.6485 Z" fill="#ffffff"/>			<path d="M 125.8731 34.7434 C 126.1094 34.52 126.2246 34.2182 126.2246 33.9167 C 126.2246 33.0111 125.1398 32.0274 124.2494 32.0274 C 123.9342 32.0274 123.6259 32.1417 123.3956 32.3712 L 115.2899 39.6146 L 115.2899 21.965 C 115.2899 21.1382 114.3635 20.5586 113.2003 20.5586 C 112.0375 20.5586 111.2193 21.1382 111.2193 21.965 L 111.2193 48.7409 C 111.2193 49.3805 112.0375 50.0627 113.2003 50.0627 C 114.3635 50.0627 115.2899 49.3805 115.2899 48.7409 L 115.2899 44.0267 L 118.1251 41.534 L 123.8194 49.7247 C 124.0921 49.8756 124.4796 50.0627 124.9034 50.0627 C 125.8731 50.0627 127.1935 49.0188 127.1935 48.0892 C 127.1935 47.9017 127.1147 47.6425 126.9632 47.4188 L 120.8753 38.9987 L 125.8731 34.7434 Z" fill="#ffffff"/>			<path d="M 133.4631 39.8742 L 133.4631 38.6367 C 133.4631 36.5122 135.3167 35.009 137.4852 35.009 C 139.727 35.009 141.4651 36.6689 141.4651 38.7152 C 141.4651 39.6448 141.1503 39.8742 140.0055 39.8742 L 133.4631 39.8742 ZM 137.5219 32.0632 C 133.0026 32.0632 129.3925 35.3528 129.3925 39.4092 L 129.3925 42.9282 C 129.3925 47.612 133.1177 50.7023 138.467 50.7023 C 142.3617 50.7023 144.7003 48.9281 144.7003 47.7691 C 144.7003 47.0686 144.1247 45.9522 143.2224 45.9522 C 142.2527 45.8375 141.3867 47.3041 138.5876 47.3041 C 135.5531 47.3041 133.4631 45.6869 133.4631 43.1032 L 133.4631 42.2159 L 141.7501 42.2159 C 143.3673 42.2159 145.0212 42.1073 145.0212 39.0654 C 145.0212 34.8581 141.7137 32.0632 137.5219 32.0632 Z" fill="#ffffff"/>			<path d="M 157.5972 35.5826 C 158.4089 35.5826 159.1418 34.7796 159.1418 33.7898 C 159.1418 32.8358 158.4089 32.0331 157.5972 32.0331 L 156.3553 32.0331 C 154.0652 32.0331 152.2418 33.6327 151.4305 35.2384 L 151.4305 33.5603 C 151.4305 32.5583 150.576 32.0274 149.5707 32.0274 C 148.4076 32.0274 147.5898 32.5583 147.5898 33.3187 L 147.5898 48.7288 C 147.5898 49.3744 148.4076 50.0627 149.5707 50.0627 C 150.7339 50.0627 151.6608 49.3744 151.6608 48.7288 L 151.6608 40.9303 C 151.6608 37.6766 153.9868 35.5826 156.3553 35.5826 L 157.5972 35.5826 Z" fill="#ffffff"/>			<path d="M 0 33.4997 L 0 35.6127 L 0 47.9863 C 0 49.1514 0.9509 50.0989 2.12 50.0989 C 3.2895 50.0989 4.2404 49.1514 4.2404 47.9863 L 4.2404 35.6127 L 10.6009 35.6127 C 11.7701 35.6127 12.7213 34.6648 12.7213 33.4997 C 12.7213 32.335 11.7701 31.3871 10.6009 31.3871 L 4.2646 31.3871 C 4.6038 24.476 8.4866 24.8864 11.2368 24.7778 L 11.2009 24.6631 C 12.0791 24.4096 12.7213 23.5948 12.7213 22.6351 C 12.7213 21.7598 12.1881 21.0114 11.4247 20.6856 C 11.4795 20.5888 11.534 20.4984 11.5884 20.4079 C 1.4902 20.1423 0.1151 27.7415 0.0302 31.3871 L 0 31.3871 L 0 33.4997 Z" fill="#ffffff"/>			<path d="M 10.0681 37.4594 C 8.9051 37.4594 8.0506 37.9906 8.0506 38.7514 L 8.0506 48.7288 C 8.0506 49.3744 8.9051 50.0627 10.0681 50.0627 C 11.2311 50.0627 12.1214 49.3744 12.1214 48.7288 L 12.1214 38.7514 C 12.1214 37.9906 11.2311 37.4594 10.0681 37.4594 Z" fill="#ffffff"/>		</g>	</g></svg>